# xmcd
#
# Track frame offsets:
#	150
#	20474
#	39459
#	61598
#	81259
#	102388
#	122773
#	137934
#	159499
#	180736
#	193564
#	209802
#
# Disc length: 3012 seconds
# Revision: 0
# Processed by: cddbd v1.5.2PL0 Copyright (c) Steve Scherf et al.
# Submitted via: dBpowerAMP V12.0
#
DISCID=a70bc20c
DTITLE=Matt Flinner Trio - Traveling Roots
DYEAR=2016
DGENRE=Country
TTITLE0=Hide Nor Hair
TTITLE1=Shiny Blue
TTITLE2=Yard Games
TTITLE3=Pioneer Coffey
TTITLE4=150 Banjos
TTITLE5=Blueberry Blue
TTITLE6=Head-Smashed-In Buffalo Jump
TTITLE7=Sopris
TTITLE8=One-Dog Night
TTITLE9=The Basketmakers
TTITLE10=Fallen Star
TTITLE11=The Terry Cloth Warriors
EXTD=
EXTT0=
EXTT1=
EXTT2=
EXTT3=
EXTT4=
EXTT5=
EXTT6=
EXTT7=
EXTT8=
EXTT9=
EXTT10=
EXTT11=
PLAYORDER=
